<svg xmlns="http://www.w3.org/2000/svg" viewBox="0 0 520 520" role="img" aria-labelledby="title desc">
  <title id="title">Promotion design board</title>
  <desc id="desc">A campaign configuration board with promotion cards, calendar blocks, percent tags, and collaboration notes.</desc>
  <defs>
    <radialGradient id="promo-bg" cx="45%" cy="31%" r="70%">
      <stop offset="0" stop-color="#fbfbfd"/>
      <stop offset=".68" stop-color="#dedde3"/>
      <stop offset="1" stop-color="#c7c6cf"/>
    </radialGradient>
    <linearGradient id="promo-board" x1="0" x2="1" y1="0" y2="1">
      <stop offset="0" stop-color="#ffffff"/>
      <stop offset="1" stop-color="#fdeadf"/>
    </linearGradient>
    <filter id="promo-shadow" x="-20%" y="-20%" width="140%" height="150%">
      <feDropShadow dx="0" dy="20" stdDeviation="18" flood-color="#181526" flood-opacity=".16"/>
    </filter>
  </defs>
  <rect width="520" height="520" fill="url(#promo-bg)"/>
  <path d="M37 376c92-48 225-59 356-23 55 15 92 40 121 73v94H37z" fill="#f7f7f5" opacity=".72"/>
  <g filter="url(#promo-shadow)">
    <rect x="97" y="118" width="326" height="235" rx="30" fill="#17171d"/>
    <rect x="114" y="139" width="292" height="191" rx="20" fill="url(#promo-board)"/>
  </g>
  <rect x="142" y="169" width="76" height="56" rx="15" fill="#f5222d"/>
  <rect x="240" y="169" width="124" height="13" rx="7" fill="#292933"/>
  <rect x="240" y="198" width="82" height="12" rx="6" fill="#e6bfbf"/>
  <rect x="142" y="257" width="67" height="48" rx="13" fill="#fbe0e0"/>
  <rect x="225" y="257" width="67" height="48" rx="13" fill="#fbe0e0"/>
  <rect x="308" y="257" width="67" height="48" rx="13" fill="#f5222d" opacity=".84"/>
  <path d="M163 275h25M246 275h25M329 275h25" stroke="#fff" stroke-width="7" stroke-linecap="round" opacity=".86"/>
  <path d="M165 196l29-26m-1 26l-28-26" stroke="#fff" stroke-width="8" stroke-linecap="round"/>
  <g filter="url(#promo-shadow)">
    <path d="M69 245l60-24 33 84-60 24z" fill="#f9f8f5"/>
    <path d="M98 276l35-14M107 299l23-9" stroke="#f5222d" stroke-width="8" stroke-linecap="round"/>
    <circle cx="95" cy="251" r="10" fill="#2c293c"/>
  </g>
  <g filter="url(#promo-shadow)">
    <path d="M395 250l55 26-37 78-55-26z" fill="#f8f7f4"/>
    <path d="M394 308l26-25m1 25l-26-25" stroke="#2b2836" stroke-width="8" stroke-linecap="round"/>
  </g>
  <path d="M393 106c30 8 57 24 79 49" fill="none" stroke="#767381" stroke-width="2" opacity=".5"/>
  <circle cx="412" cy="384" r="12" fill="#f5222d"/>
</svg>
