<svg xmlns="http://www.w3.org/2000/svg" viewBox="0 0 400 400" role="img" aria-labelledby="title desc">
  <title id="title">Promotion product placeholder</title>
  <desc id="desc">Abstract promotion campaign illustration.</desc>
  <defs>
    <linearGradient id="bg" x1="0" x2="1" y1="0" y2="1">
      <stop offset="0" stop-color="#f7f4ff"/>
      <stop offset="1" stop-color="#d8d0ff"/>
    </linearGradient>
  </defs>
  <rect width="400" height="400" fill="url(#bg)"/>
  <circle cx="295" cy="110" r="76" fill="#8f7cff" opacity=".2"/>
  <path d="M108 128h184a28 28 0 0 1 28 28v108a28 28 0 0 1-28 28H108a28 28 0 0 1-28-28V156a28 28 0 0 1 28-28z" fill="#fff" stroke="#6651e8" stroke-width="7"/>
  <circle cx="146" cy="188" r="26" fill="#8f7cff"/>
  <circle cx="254" cy="232" r="26" fill="#8f7cff"/>
  <path d="M252 166L140 254" fill="none" stroke="#6651e8" stroke-width="16" stroke-linecap="round"/>
  <path d="M99 128l44-49 30 49zm128 0l30-58 58 58z" fill="#6651e8" opacity=".86"/>
</svg>
